<?xml version="1.0" encoding="UTF-8"?><svg id="a" xmlns="http://www.w3.org/2000/svg" viewBox="0 0 196.48 42.67"><defs><style>.c{fill:#231815;}</style></defs><g id="b"><path class="c" d="M38.81,19.26h-1.32c0-2.42-1.32-3.5-3.64-3.5-2,0-3.14,.98-3.14,2.58,0,1.7,1.22,2.2,3.6,2.78,2.7,.66,4.76,1.34,4.76,4.16,0,2.48-1.88,4.06-4.86,4.06-3.22,0-5.1-1.7-5.1-5h1.3c0,2.66,1.5,3.8,3.8,3.8s3.54-1.04,3.54-2.84-1.3-2.24-3.76-2.86c-2.74-.68-4.6-1.36-4.6-4.08,0-2.22,1.66-3.78,4.46-3.78,3.3,0,4.96,1.6,4.96,4.68Z"/><path class="c" d="M43.5,16.02v5.16h7.18v1.18h-7.18v5.54h7.8v1.18h-9.1V14.84h8.86v1.18h-7.56Z"/><path class="c" d="M64.43,29.08h-1.82l-6.86-7.14h-.04v7.14h-1.3V14.84h1.3v6.5h.04l6.28-6.5h1.76l-6.62,6.8,7.26,7.44Z"/><path class="c" d="M66.54,29.08V14.84h1.3v14.24h-1.3Z"/><path class="c" d="M83.31,19.28h-3.16c-.26-1.4-1.2-2.16-2.78-2.16-2.28,0-3.72,1.84-3.72,4.9s1.4,5.02,3.66,5.02c2.04,0,3.16-1.18,3.2-3.38h-3.38v-2.4h6.12v7.82h-2.48v-1.54h-.04c-.8,1.12-2.26,1.82-4.16,1.82-3.64,0-5.96-2.78-5.96-7.34s2.6-7.5,6.76-7.5c3.5,0,5.64,1.84,5.94,4.76Z"/><path class="c" d="M89,25.6l-1.12,3.48h-3.08l4.94-14.24h3.96l4.94,14.24h-3.08l-1.1-3.48h-5.46Zm4.36-3.46c-.58-1.84-1.14-3.72-1.62-5.56h-.04c-.48,1.84-1.02,3.72-1.6,5.56l-.3,.94h3.86l-.3-.94Z"/><path class="c" d="M111.86,19.78h-2.96c-.18-1.66-1.28-2.66-2.94-2.66-2.16,0-3.48,1.84-3.48,4.84s1.3,4.84,3.42,4.84c1.68,0,2.78-.98,3-2.72h3.02c-.28,3.38-2.54,5.32-6.02,5.32-4,0-6.46-2.82-6.46-7.44s2.48-7.44,6.52-7.44c3.52,0,5.76,2.16,5.9,5.26Z"/><path class="c" d="M123.14,29.08v-6.14h-5.84v6.14h-2.94V14.84h2.94v5.58h5.84v-5.58h2.94v14.24h-2.94Z"/><path class="c" d="M131.98,25.6l-1.12,3.48h-3.08l4.94-14.24h3.96l4.94,14.24h-3.08l-1.1-3.48h-5.46Zm4.36-3.46c-.58-1.84-1.14-3.72-1.62-5.56h-.04c-.48,1.84-1.02,3.72-1.6,5.56l-.3,.94h3.86l-.3-.94Z"/><path class="c" d="M148.87,29.08l-2.66-7.12h.94l1.12,3.08c.39,1.09,.76,2.09,1.15,3.19h.03c.39-1.11,.76-2.1,1.15-3.19l1.12-3.08h.94l-2.66,7.12h-1.12Z"/><path class="c" d="M160.75,24.36c0,3.18-1.13,4.9-3.24,4.9s-3.25-1.72-3.25-4.9,1.13-4.9,3.25-4.9,3.24,1.71,3.24,4.9Zm-5.52,0c0,2.66,.8,4.08,2.28,4.08s2.28-1.42,2.28-4.08-.8-4.05-2.28-4.05-2.28,1.4-2.28,4.05Z"/><path class="c" d="M162.19,29.08v-1.29h1.21v1.29h-1.21Z"/><path class="c" d="M165.03,26.73h.95c.2,1.09,.81,1.7,1.85,1.7,1.47,0,2.39-1.26,2.45-3.95h-.03c-.53,.84-1.36,1.32-2.41,1.32-1.75,0-2.96-1.25-2.96-3.11s1.25-3.22,3.08-3.22c2.04,0,3.19,1.5,3.19,4.51,0,3.47-1.23,5.29-3.35,5.29-1.6,0-2.61-.97-2.79-2.54Zm5.06-4.03c0-1.46-.8-2.4-2.12-2.4s-2.12,.94-2.12,2.38c0,1.36,.83,2.28,2.1,2.28s2.13-.95,2.13-2.27Z"/></g></svg>